{
  "accessors": [
    {
      "bufferView": 2,
      "componentType": 5126,
      "count": 2116,
      "max": [
        0.20038500428199768,
        0.07067400217056274,
        0.0015930000226944685
      ],
      "min": [
        -0.13133999705314636,
        -0.04365300014615059,
        -0.0015930000226944685
      ],
      "type": "VEC3"
    },
    {
      "bufferView": 2,
      "byteOffset": 25392,
      "componentType": 5126,
      "count": 2116,
      "max": [
        1.0,
        1.0,
        1.0
      ],
      "min": [
        -1.0,
        -1.0,
        0.0
      ],
      "type": "VEC3"
    },
    {
      "bufferView": 3,
      "componentType": 5126,
      "count": 2116,
      "max": [
        1.0,
        1.0,
        0.9999979138374329,
        1.0
      ],
      "min": [
        -1.0,
        -1.0,
        -0.9999992847442627,
        1.0
      ],
      "type": "VEC4"
    },
    {
      "bufferView": 1,
      "componentType": 5126,
      "count": 2116,
      "max": [
        0.9873440265655518,
        0.9975259900093079
      ],
      "min": [
        0.002472999971359968,
        0.002472999971359968
      ],
      "type": "VEC2"
    },
    {
      "bufferView": 0,
      "componentType": 5125,
      "count": 3390,
      "type": "SCALAR"
    },
    {
      "bufferView": 2,
      "byteOffset": 50784,
      "componentType": 5126,
      "count": 602,
      "max": [
        0.17501500248908997,
        0.11551900207996368,
        0.0075690001249313354
      ],
      "min": [
        -0.1748809963464737,
        -0.05133400112390518,
        0.0032550001051276922
      ],
      "type": "VEC3"
    },
    {
      "bufferView": 2,
      "byteOffset": 58008,
      "componentType": 5126,
      "count": 602,
      "max": [
        1.0,
        1.0,
        1.0
      ],
      "min": [
        -1.0,
        -1.0,
        -1.0
      ],
      "type": "VEC3"
    },
    {
      "bufferView": 3,
      "byteOffset": 33856,
      "componentType": 5126,
      "count": 602,
      "max": [
        1.0,
        1.0,
        1.0,
        1.0
      ],
      "min": [
        -1.0,
        -1.0,
        -1.0,
        1.0
      ],
      "type": "VEC4"
    },
    {
      "bufferView": 1,
      "byteOffset": 16928,
      "componentType": 5126,
      "count": 602,
      "max": [
        0.9974049925804138,
        0.8045560121536255
      ],
      "min": [
        0.002595999976620078,
        0.002595999976620078
      ],
      "type": "VEC2"
    },
    {
      "bufferView": 0,
      "byteOffset": 13560,
      "componentType": 5125,
      "count": 1446,
      "type": "SCALAR"
    },
    {
      "bufferView": 2,
      "byteOffset": 65232,
      "componentType": 5126,
      "count": 140,
      "max": [
        0.17495200037956238,
        0.11551900207996368,
        0.008805000223219395
      ],
      "min": [
        -0.17495200037956238,
        -0.11909999698400497,
        0.0032550001051276922
      ],
      "type": "VEC3"
    },
    {
      "bufferView": 2,
      "byteOffset": 66912,
      "componentType": 5126,
      "count": 140,
      "max": [
        1.0,
        1.0,
        1.0
      ],
      "min": [
        -1.0,
        -1.0,
        -1.0
      ],
      "type": "VEC3"
    },
    {
      "bufferView": 3,
      "byteOffset": 43488,
      "componentType": 5126,
      "count": 140,
      "max": [
        1.0,
        1.0,
        0.9999994039535522,
        1.0
      ],
      "min": [
        -1.0,
        -1.0,
        -0.9999982118606567,
        -1.0
      ],
      "type": "VEC4"
    },
    {
      "bufferView": 1,
      "byteOffset": 21744,
      "componentType": 5126,
      "count": 140,
      "max": [
        0.9973480105400085,
        0.6311889886856079
      ],
      "min": [
        0.0024759999942034483,
        0.002478000009432435
      ],
      "type": "VEC2"
    },
    {
      "bufferView": 0,
      "byteOffset": 19344,
      "componentType": 5125,
      "count": 270,
      "type": "SCALAR"
    },
    {
      "bufferView": 2,
      "byteOffset": 68592,
      "componentType": 5126,
      "count": 262,
      "max": [
        0.17495200037956238,
        0.12187399715185165,
        0.008559999987483025
      ],
      "min": [
        -0.17495200037956238,
        -0.12187399715185165,
        -0.00030300000798888505
      ],
      "type": "VEC3"
    },
    {
      "bufferView": 2,
      "byteOffset": 71736,
      "componentType": 5126,
      "count": 262,
      "max": [
        1.0,
        0.9975617527961731,
        0.0006639998173341155
      ],
      "min": [
        -1.0,
        -0.9980269074440002,
        -0.994599461555481
      ],
      "type": "VEC3"
    },
    {
      "bufferView": 3,
      "byteOffset": 45728,
      "componentType": 5126,
      "count": 262,
      "max": [
        0.9966410398483276,
        0.9106943607330322,
        0.9528428316116333,
        1.0
      ],
      "min": [
        -0.9999839663505554,
        -1.0,
        -0.9379699230194092,
        -1.0
      ],
      "type": "VEC4"
    },
    {
      "bufferView": 1,
      "byteOffset": 22864,
      "componentType": 5126,
      "count": 262,
      "max": [
        0.9974610209465027,
        0.8349949717521667
      ],
      "min": [
        0.0025400000158697367,
        0.009788000024855137
      ],
      "type": "VEC2"
    },
    {
      "bufferView": 0,
      "byteOffset": 20424,
      "componentType": 5125,
      "count": 1068,
      "type": "SCALAR"
    },
    {
      "bufferView": 2,
      "byteOffset": 74880,
      "componentType": 5126,
      "count": 140,
      "max": [
        0.17495200037956238,
        0.12187399715185165,
        0.008559999987483025
      ],
      "min": [
        -0.17495200037956238,
        -0.12187399715185165,
        0.00811699964106083
      ],
      "type": "VEC3"
    },
    {
      "bufferView": 2,
      "byteOffset": 76560,
      "componentType": 5126,
      "count": 140,
      "max": [
        0.43886810541152954,
        0.8400501608848572,
        1.0
      ],
      "min": [
        -0.43913084268569946,
        -0.8413218259811401,
        0.5405308604240417
      ],
      "type": "VEC3"
    },
    {
      "bufferView": 3,
      "byteOffset": 49920,
      "componentType": 5126,
      "count": 140,
      "max": [
        0.7421984076499939,
        0.4763047695159912,
        0.12197160720825195,
        1.0
      ],
      "min": [
        -1.0,
        -1.0,
        -0.4491061568260193,
        -1.0
      ],
      "type": "VEC4"
    },
    {
      "bufferView": 1,
      "byteOffset": 24960,
      "componentType": 5126,
      "count": 140,
      "max": [
        0.9981110095977783,
        0.9082509875297546
      ],
      "min": [
        0.0018860000418499112,
        0.001888000057078898
      ],
      "type": "VEC2"
    },
    {
      "bufferView": 0,
      "byteOffset": 24696,
      "componentType": 5125,
      "count": 390,
      "type": "SCALAR"
    },
    {
      "bufferView": 2,
      "byteOffset": 78240,
      "componentType": 5126,
      "count": 20,
      "max": [
        0.16871200501918793,
        0.09839300066232681,
        0.20140400528907776
      ],
      "min": [
        -0.16871300339698792,
        0.010389000177383423,
        0.012679999694228172
      ],
      "type": "VEC3"
    },
    {
      "bufferView": 2,
      "byteOffset": 78480,
      "componentType": 5126,
      "count": 20,
      "max": [
        0.0,
        -0.9063078761100769,
        0.42261794209480286
      ],
      "min": [
        0.0,
        -0.9063078761100769,
        0.42261794209480286
      ],
      "type": "VEC3"
    },
    {
      "bufferView": 3,
      "byteOffset": 52160,
      "componentType": 5126,
      "count": 20,
      "max": [
        1.0,
        0.0001663493167143315,
        0.00035673758247867227,
        1.0
      ],
      "min": [
        0.9999992251396179,
        -0.0005463966517709196,
        -0.0011717523448169231,
        1.0
      ],
      "type": "VEC4"
    },
    {
      "bufferView": 1,
      "byteOffset": 26080,
      "componentType": 5126,
      "count": 20,
      "max": [
        0.9974960088729858,
        0.6165390014648438
      ],
      "min": [
        0.002503999974578619,
        0.002503999974578619
      ],
      "type": "VEC2"
    },
    {
      "bufferView": 0,
      "byteOffset": 26256,
      "componentType": 5125,
      "count": 54,
      "type": "SCALAR"
    },
    {
      "bufferView": 2,
      "byteOffset": 78720,
      "componentType": 5126,
      "count": 121,
      "max": [
        0.17495200037956238,
        0.10770999640226364,
        0.21816599369049072
      ],
      "min": [
        -0.17637300491333008,
        0.0014509999891743064,
        -0.004044000059366226
      ],
      "type": "VEC3"
    },
    {
      "bufferView": 2,
      "byteOffset": 80172,
      "componentType": 5126,
      "count": 121,
      "max": [
        0.9929659962654114,
        0.9869397878646851,
        0.9041500091552734
      ],
      "min": [
        -0.981079638004303,
        -0.4212760627269745,
        -0.9936330914497375
      ],
      "type": "VEC3"
    },
    {
      "bufferView": 3,
      "byteOffset": 52480,
      "componentType": 5126,
      "count": 121,
      "max": [
        0.8611851334571838,
        0.891609251499176,
        0.9963387846946716,
        1.0
      ],
      "min": [
        -0.8667557835578918,
        -0.9948667883872986,
        -0.9829291105270386,
        -1.0
      ],
      "type": "VEC4"
    },
    {
      "bufferView": 1,
      "byteOffset": 26240,
      "componentType": 5126,
      "count": 121,
      "max": [
        0.4952560067176819,
        0.7045590281486511
      ],
      "min": [
        0.0025309999473392963,
        0.0025319999549537897
      ],
      "type": "VEC2"
    },
    {
      "bufferView": 0,
      "byteOffset": 26472,
      "componentType": 5125,
      "count": 654,
      "type": "SCALAR"
    },
    {
      "bufferView": 2,
      "byteOffset": 81624,
      "componentType": 5126,
      "count": 84,
      "max": [
        0.17495200037956238,
        0.10446400195360184,
        0.21816599369049072
      ],
      "min": [
        -0.17637300491333008,
        0.0014509999891743064,
        -0.002744999947026372
      ],
      "type": "VEC3"
    },
    {
      "bufferView": 2,
      "byteOffset": 82632,
      "componentType": 5126,
      "count": 84,
      "max": [
        0.9640056490898132,
        0.4224589467048645,
        0.9043446779251099
      ],
      "min": [
        -0.9640079736709595,
        -0.9063131213188171,
        -0.9046907424926758
      ],
      "type": "VEC3"
    },
    {
      "bufferView": 3,
      "byteOffset": 54416,
      "componentType": 5126,
      "count": 84,
      "max": [
        -0.23040013015270233,
        0.9219478964805603,
        0.953129768371582,
        1.0
      ],
      "min": [
        -0.9998155236244202,
        -0.8804192543029785,
        -0.5933351516723633,
        1.0
      ],
      "type": "VEC4"
    },
    {
      "bufferView": 1,
      "byteOffset": 27208,
      "componentType": 5126,
      "count": 84,
      "max": [
        0.5405300259590149,
        0.3785549998283386
      ],
      "min": [
        0.0018889999482780695,
        0.001888000057078898
      ],
      "type": "VEC2"
    },
    {
      "bufferView": 0,
      "byteOffset": 29088,
      "componentType": 5125,
      "count": 240,
      "type": "SCALAR"
    }
  ],
  "asset": {
    "extras": {
      "author": "Red Fox / nokillnando (https://sketchfab.com/nokillnando)",
      "license": "CC-BY-4.0 (http://creativecommons.org/licenses/by/4.0/)",
      "source": "https://sketchfab.com/3d-models/laptop-f34c1400926e430a9ef10bb180986b42",
      "title": "Laptop"
    },
    "generator": "Sketchfab-12.65.0",
    "version": "2.0"
  },
  "bufferViews": [
    {
      "buffer": 0,
      "byteLength": 30048,
      "name": "floatBufferViews",
      "target": 34963
    },
    {
      "buffer": 0,
      "byteLength": 27880,
      "byteOffset": 30048,
      "byteStride": 8,
      "name": "floatBufferViews",
      "target": 34962
    },
    {
      "buffer": 0,
      "byteLength": 83640,
      "byteOffset": 57928,
      "byteStride": 12,
      "name": "floatBufferViews",
      "target": 34962
    },
    {
      "buffer": 0,
      "byteLength": 55760,
      "byteOffset": 141568,
      "byteStride": 16,
      "name": "floatBufferViews",
      "target": 34962
    }
  ],
  "buffers": [
    {
      "byteLength": 197328,
      "uri": "scene.bin"
    }
  ],
  "images": [
    {
      "uri": "textures/LaptopScreen_baseColor.jpeg"
    },
    {
      "uri": "textures/LaptopScreen_metallicRoughness.png"
    },
    {
      "uri": "textures/LaptopScreen_emissive.jpeg"
    },
    {
      "uri": "textures/LaptopScreen_normal.png"
    },
    {
      "uri": "textures/LaptopBack_baseColor.jpeg"
    },
    {
      "uri": "textures/LaptopBack_metallicRoughness.png"
    },
    {
      "uri": "textures/LaptopBack_normal.png"
    },
    {
      "uri": "textures/LaptopFront_baseColor.jpeg"
    },
    {
      "uri": "textures/LaptopFront_metallicRoughness.png"
    },
    {
      "uri": "textures/LaptopFront_normal.png"
    },
    {
      "uri": "textures/LaptopKeys_baseColor.jpeg"
    },
    {
      "uri": "textures/LaptopKeys_metallicRoughness.png"
    },
    {
      "uri": "textures/LaptopKeys_normal.png"
    },
    {
      "uri": "textures/LapTopMisc_baseColor.jpeg"
    },
    {
      "uri": "textures/LapTopMisc_metallicRoughness.png"
    },
    {
      "uri": "textures/LapTopMisc_normal.png"
    }
  ],
  "materials": [
    {
      "doubleSided": true,
      "emissiveFactor": [
        0.5,
        0.5,
        0.5
      ],
      "emissiveTexture": {
        "index": 2
      },
      "name": "LaptopScreen",
      "normalTexture": {
        "index": 3
      },
      "occlusionTexture": {
        "index": 1
      },
      "pbrMetallicRoughness": {
        "baseColorTexture": {
          "index": 0
        },
        "metallicRoughnessTexture": {
          "index": 1
        }
      }
    },
    {
      "doubleSided": true,
      "name": "LaptopBack",
      "normalTexture": {
        "index": 6
      },
      "occlusionTexture": {
        "index": 5
      },
      "pbrMetallicRoughness": {
        "baseColorTexture": {
          "index": 4
        },
        "metallicRoughnessTexture": {
          "index": 5
        }
      }
    },
    {
      "doubleSided": true,
      "name": "LaptopFront",
      "normalTexture": {
        "index": 9
      },
      "occlusionTexture": {
        "index": 8
      },
      "pbrMetallicRoughness": {
        "baseColorTexture": {
          "index": 7
        },
        "metallicRoughnessTexture": {
          "index": 8
        }
      }
    },
    {
      "doubleSided": true,
      "name": "LaptopKeys",
      "normalTexture": {
        "index": 12
      },
      "occlusionTexture": {
        "index": 11
      },
      "pbrMetallicRoughness": {
        "baseColorTexture": {
          "index": 10
        },
        "metallicRoughnessTexture": {
          "index": 11
        }
      }
    },
    {
      "doubleSided": true,
      "name": "LapTopMisc",
      "normalTexture": {
        "index": 15
      },
      "occlusionTexture": {
        "index": 14
      },
      "pbrMetallicRoughness": {
        "baseColorTexture": {
          "index": 13
        },
        "metallicRoughnessTexture": {
          "index": 14
        }
      }
    }
  ],
  "meshes": [
    {
      "name": "defaultMaterial",
      "primitives": [
        {
          "attributes": {
            "NORMAL": 1,
            "POSITION": 0,
            "TANGENT": 2,
            "TEXCOORD_0": 3
          },
          "indices": 4,
          "material": 3,
          "mode": 4
        }
      ]
    },
    {
      "name": "defaultMaterial",
      "primitives": [
        {
          "attributes": {
            "NORMAL": 6,
            "POSITION": 5,
            "TANGENT": 7,
            "TEXCOORD_0": 8
          },
          "indices": 9,
          "material": 4,
          "mode": 4
        }
      ]
    },
    {
      "name": "defaultMaterial",
      "primitives": [
        {
          "attributes": {
            "NORMAL": 11,
            "POSITION": 10,
            "TANGENT": 12,
            "TEXCOORD_0": 13
          },
          "indices": 14,
          "material": 3,
          "mode": 4
        }
      ]
    },
    {
      "name": "defaultMaterial",
      "primitives": [
        {
          "attributes": {
            "NORMAL": 16,
            "POSITION": 15,
            "TANGENT": 17,
            "TEXCOORD_0": 18
          },
          "indices": 19,
          "material": 1,
          "mode": 4
        }
      ]
    },
    {
      "name": "defaultMaterial",
      "primitives": [
        {
          "attributes": {
            "NORMAL": 21,
            "POSITION": 20,
            "TANGENT": 22,
            "TEXCOORD_0": 23
          },
          "indices": 24,
          "material": 2,
          "mode": 4
        }
      ]
    },
    {
      "name": "defaultMaterial",
      "primitives": [
        {
          "attributes": {
            "NORMAL": 26,
            "POSITION": 25,
            "TANGENT": 27,
            "TEXCOORD_0": 28
          },
          "indices": 29,
          "material": 0,
          "mode": 4
        }
      ]
    },
    {
      "name": "defaultMaterial",
      "primitives": [
        {
          "attributes": {
            "NORMAL": 31,
            "POSITION": 30,
            "TANGENT": 32,
            "TEXCOORD_0": 33
          },
          "indices": 34,
          "material": 1,
          "mode": 4
        }
      ]
    },
    {
      "name": "defaultMaterial",
      "primitives": [
        {
          "attributes": {
            "NORMAL": 36,
            "POSITION": 35,
            "TANGENT": 37,
            "TEXCOORD_0": 38
          },
          "indices": 39,
          "material": 2,
          "mode": 4
        }
      ]
    }
  ],
  "nodes": [
    {
      "children": [
        1
      ],
      "matrix": [
        1.0,
        0.0,
        0.0,
        0.0,
        0.0,
        2.220446049250313e-16,
        -1.0,
        0.0,
        0.0,
        1.0,
        2.220446049250313e-16,
        0.0,
        0.0,
        0.0,
        0.0,
        1.0
      ],
      "name": "Sketchfab_model"
    },
    {
      "children": [
        2,
        4,
        6,
        10
      ],
      "matrix": [
        1.0,
        0.0,
        0.0,
        0.0,
        0.0,
        -4.371139006309477e-08,
        0.999999999999999,
        0.0,
        0.0,
        -0.999999999999999,
        -4.371139006309477e-08,
        0.0,
        0.0,
        0.0,
        0.0,
        1.0
      ],
      "name": "Collada visual scene group"
    },
    {
      "children": [
        3
      ],
      "matrix": [
        100.0,
        0.0,
        0.0,
        0.0,
        0.0,
        -1.6e-05,
        -100.0,
        0.0,
        0.0,
        100.0,
        -1.6e-05,
        0.0,
        -3.419038,
        0.778531,
        -0.907008,
        1.0
      ],
      "name": "LaptopKeyboard"
    },
    {
      "mesh": 0,
      "name": "defaultMaterial"
    },
    {
      "children": [
        5
      ],
      "matrix": [
        100.0,
        0.0,
        0.0,
        0.0,
        0.0,
        -1.6e-05,
        -100.0,
        0.0,
        0.0,
        100.0,
        -1.6e-05,
        0.0,
        0.0,
        0.0,
        0.0,
        1.0
      ],
      "name": "LaptopPorts2"
    },
    {
      "mesh": 1,
      "name": "defaultMaterial"
    },
    {
      "children": [
        7,
        8,
        9
      ],
      "matrix": [
        100.0,
        0.0,
        0.0,
        0.0,
        0.0,
        -1.6e-05,
        -100.0,
        0.0,
        0.0,
        100.0,
        -1.6e-05,
        0.0,
        0.0,
        0.0,
        0.0,
        1.0
      ],
      "name": "LaptopTouch"
    },
    {
      "mesh": 2,
      "name": "defaultMaterial"
    },
    {
      "mesh": 3,
      "name": "defaultMaterial"
    },
    {
      "mesh": 4,
      "name": "defaultMaterial"
    },
    {
      "children": [
        11,
        12,
        13
      ],
      "matrix": [
        100.0,
        0.0,
        0.0,
        0.0,
        0.0,
        -1.6e-05,
        -100.0,
        0.0,
        0.0,
        100.0,
        -1.6e-05,
        0.0,
        2.1e-05,
        0.62633,
        -12.0,
        1.0
      ],
      "name": "LaptopScreen"
    },
    {
      "mesh": 5,
      "name": "defaultMaterial"
    },
    {
      "mesh": 6,
      "name": "defaultMaterial"
    },
    {
      "mesh": 7,
      "name": "defaultMaterial"
    }
  ],
  "samplers": [
    {
      "magFilter": 9729,
      "minFilter": 9987,
      "wrapS": 10497,
      "wrapT": 10497
    }
  ],
  "scene": 0,
  "scenes": [
    {
      "name": "Sketchfab_Scene",
      "nodes": [
        0
      ]
    }
  ],
  "textures": [
    {
      "sampler": 0,
      "source": 0
    },
    {
      "sampler": 0,
      "source": 1
    },
    {
      "sampler": 0,
      "source": 2
    },
    {
      "sampler": 0,
      "source": 3
    },
    {
      "sampler": 0,
      "source": 4
    },
    {
      "sampler": 0,
      "source": 5
    },
    {
      "sampler": 0,
      "source": 6
    },
    {
      "sampler": 0,
      "source": 7
    },
    {
      "sampler": 0,
      "source": 8
    },
    {
      "sampler": 0,
      "source": 9
    },
    {
      "sampler": 0,
      "source": 10
    },
    {
      "sampler": 0,
      "source": 11
    },
    {
      "sampler": 0,
      "source": 12
    },
    {
      "sampler": 0,
      "source": 13
    },
    {
      "sampler": 0,
      "source": 14
    },
    {
      "sampler": 0,
      "source": 15
    }
  ]
}
