<svg xmlns="http://www.w3.org/2000/svg" version="1.1" xmlns:xlink="http://www.w3.org/1999/xlink" xmlns:svgjs="http://svgjs.dev/svgjs" width="2000" height="767" viewBox="0 0 2000 767"><g transform="matrix(1,0,0,1,-1.2121212121212466,0.6787459021746258)"><svg viewBox="0 0 396 152" data-background-color="#ffffff" preserveAspectRatio="xMidYMid meet" height="767" width="2000" xmlns="http://www.w3.org/2000/svg" xmlns:xlink="http://www.w3.org/1999/xlink"><g id="tight-bounds" transform="matrix(1,0,0,1,0.2400000000000091,-0.1345102700528571)"><svg viewBox="0 0 395.52 152.2690205401057" height="152.2690205401057" width="395.52"><g><svg viewBox="0 0 395.52 152.2690205401057" height="152.2690205401057" width="395.52"><g><svg viewBox="0 0 395.52 152.2690205401057" height="152.2690205401057" width="395.52"><g id="textblocktransform"><svg viewBox="0 0 395.52 152.2690205401057" height="152.2690205401057" width="395.52" id="textblock"><g><rect width="110.30842662532338" height="8.048748950185063" y="127.27065673105335" fill="#6936f5" data-fill-palette-color="tertiary"></rect><rect width="110.30842662532338" height="8.048748950185063" y="127.27065673105335" x="285.2115733746766" fill="#6936f5" data-fill-palette-color="tertiary"></rect></g><g><svg viewBox="0 0 395.52 89.25101844238223" height="89.25101844238223" width="395.52"><g transform="matrix(1,0,0,1,0,0)"><svg width="395.52" viewBox="2.32 -38.23 207.82 46.9" height="89.25101844238223" data-palette-color="#ff00ff"><path d="M2.32-3.27L2.32-3.27Q2.32-3.64 2.58-3.94 2.83-4.25 3.25-4.25 3.66-4.25 3.93-4L3.93-4Q3.93-4 4.54-3.44L4.54-3.44Q7.08-1.22 11.65-1.22L11.65-1.22Q14.72-1.22 15.6-2.49L15.6-2.49Q15.84-2.83 15.84-3.19 15.84-3.54 15.71-3.87 15.58-4.2 15.14-4.68 14.7-5.15 13.89-5.81L13.89-5.81 11.74-7.54Q6.42-11.69 4.44-14.28L4.44-14.28Q2.64-16.65 2.64-19.12L2.64-19.12Q2.64-22.22 5.49-24.32L5.49-24.32Q8.45-26.51 13.13-26.51L13.13-26.51Q16.43-26.51 18.33-25.76 20.24-25 21.02-24.38 21.8-23.75 21.8-23.24L21.8-23.24Q21.8-22.19 20.97-22.19L20.97-22.19Q20.58-22.19 20.25-22.47 19.92-22.75 18.95-23.43 17.97-24.1 16.36-24.49 14.75-24.88 13.35-24.88 11.96-24.88 11.39-24.44 10.82-24 10.82-23.57 10.82-23.14 10.99-22.77 11.16-22.39 11.62-21.88L11.62-21.88Q12.7-20.61 15.06-18.87 17.43-17.14 19.07-15.7 20.7-14.26 21.63-13.04L21.63-13.04Q23.32-10.84 23.32-8.59 23.32-6.35 22.49-4.75 21.66-3.15 20.12-2L20.12-2Q16.87 0.46 11.45 0.46L11.45 0.46Q7.1 0.46 4.2-1.2L4.2-1.2Q2.32-2.25 2.32-3.27ZM51.85-5.93L51.85-5.93Q52.81-5.93 52.81-5.05L52.81-5.05Q52.81-4.39 51.95-3.49L51.95-3.49Q48.09 0.46 41.38 0.46L41.38 0.46Q35.35 0.46 31.22-3.17L31.22-3.17Q26.95-6.96 26.95-12.74L26.95-12.74Q26.95-18.65 30.81-22.46L30.81-22.46Q34.89-26.51 41.65-26.51L41.65-26.51Q47.07-26.51 50.75-23.22L50.75-23.22Q54.73-19.68 54.73-13.92L54.73-13.92Q54.73-13.09 54.69-12.16L54.69-12.16 38.57-12.16 38.57-1.68Q40.23-1.34 42.31-1.34L42.31-1.34Q46.7-1.34 49.8-4.25L49.8-4.25Q50.44-4.88 50.71-5.25L50.71-5.25Q51.27-5.93 51.85-5.93ZM45.33-13.94L45.33-24.27Q43.75-24.73 41.75-24.73 39.74-24.73 38.57-24.46L38.57-24.46 38.57-13.94 45.33-13.94ZM79.41 0L79.41-1.34Q76.36 0.46 72.96 0.46 69.55 0.46 66.97-0.55 64.4-1.56 62.57-3.37L62.57-3.37Q58.76-7.15 58.76-13.21L58.76-13.21Q58.76-18.82 62.52-22.56L62.52-22.56Q66.52-26.51 72.97-26.51L72.97-26.51Q76.39-26.51 79.41-25.02L79.41-25.02 79.41-34.55 89.47-34.55 89.47 0 79.41 0ZM72.48-24.73L72.48-24.73Q71.72-24.73 71.04-24.63L71.04-24.63 71.04-1.49Q71.92-1.34 72.94-1.34L72.94-1.34Q76.34-1.34 79.41-3.49L79.41-3.49 79.41-22.85Q76.12-24.73 72.48-24.73ZM115.93 0L115.93-1.34Q112.88 0.46 109.48 0.46 106.07 0.46 103.5-0.55 100.92-1.56 99.09-3.37L99.09-3.37Q95.28-7.15 95.28-13.21L95.28-13.21Q95.28-18.82 99.04-22.56L99.04-22.56Q103.04-26.51 109.49-26.51L109.49-26.51Q112.91-26.51 115.93-25.02L115.93-25.02 115.93-34.55 125.99-34.55 125.99 0 115.93 0ZM109-24.73L109-24.73Q108.24-24.73 107.56-24.63L107.56-24.63 107.56-1.49Q108.44-1.34 109.47-1.34L109.47-1.34Q112.86-1.34 115.93-3.49L115.93-3.49 115.93-22.85Q112.64-24.73 109-24.73ZM139.1-30.35Q136.59-30.35 135.17-31.47 133.75-32.59 133.75-34.42L133.75-34.42Q133.75-35.96 135.32-37.06L135.32-37.06Q136.98-38.23 138.83-38.23 140.69-38.23 141.7-37.87 142.71-37.5 143.42-36.91L143.42-36.91Q144.84-35.72 144.84-34.13L144.84-34.13Q144.84-32.54 143.23-31.45L143.23-31.45Q141.62-30.35 139.1-30.35ZM133.97 0L133.97-26.07 144.47-26.07 144.47 0 133.97 0ZM157.78-7.96L157.78-7.96Q155.6-7.3 155.6-6.52L155.6-6.52Q155.6-5.76 156.87-5.47L156.87-5.47Q159.34-4.88 163.66-4.77 167.98-4.66 170.17-4.11 172.35-3.56 173.64-2.73L173.64-2.73Q175.99-1.2 175.99 1.34L175.99 1.34Q175.99 4.52 172.84 6.49L172.84 6.49Q169.35 8.67 163 8.67L163 8.67Q156.43 8.67 152.16 6.71L152.16 6.71Q150.62 5.96 150.62 5L150.62 5Q150.62 4.59 150.93 4.35 151.23 4.1 151.57 4.1L151.57 4.1Q151.99 4.1 152.53 4.42L152.53 4.42Q153.77 5.13 154.83 5.6 155.9 6.08 158.17 6.52 160.44 6.96 162.55 6.96 164.66 6.96 165.99 6.77 167.32 6.59 168.2 6.35L168.2 6.35Q169.93 5.83 169.93 5.2L169.93 5.2Q169.93 4.61 169.59 4.35 169.25 4.08 168.7 3.87 168.15 3.66 167.18 3.49L167.18 3.49Q165.17 3.15 161.73 2.98 158.29 2.81 156.29 2.31 154.28 1.81 153.01 1.03L153.01 1.03Q150.55-0.46 150.55-3L150.55-3Q150.55-6.67 155.51-8.94L155.51-8.94Q153.23-10.18 151.89-12.22 150.55-14.26 150.55-16.64 150.55-19.02 151.44-20.76 152.33-22.51 153.94-23.78L153.94-23.78Q157.34-26.51 162.71-26.51L162.71-26.51Q165.1-26.51 167.52-25.78L167.52-25.78Q170.98-29.13 173.94-29.13L173.94-29.13Q175.18-29.13 175.78-28.71 176.38-28.3 176.38-27.66L176.38-27.66Q176.38-27.03 175.96-26.75 175.55-26.46 175.18-26.46L175.18-26.46Q174.52-26.46 174.06-26.61L174.06-26.61Q173.38-26.86 172.67-26.86L172.67-26.86Q171.35-26.86 169.35-25.02L169.35-25.02Q173.33-23.07 174.55-19.41L174.55-19.41Q174.94-18.19 174.94-16.42 174.94-14.65 173.91-12.89 172.89-11.13 171.18-9.86L171.18-9.86Q167.61-7.23 162.8-7.23L162.8-7.23Q160.27-7.18 157.78-7.96ZM162.9-24.78L162.9-9.01Q166.86-9.06 169.71-10.94L169.71-10.94Q173.01-13.09 173.01-16.75 173.01-20.41 169.76-22.66L169.76-22.66Q166.78-24.71 162.9-24.78L162.9-24.78ZM201.55-26.51L201.55-26.51Q210.14-26.51 210.14-18.16L210.14-18.16 210.14 0 199.64 0 199.64-23.75Q199.2-24.05 198.48-24.05 197.76-24.05 196.98-23.71 196.2-23.36 195.35-22.75L195.35-22.75Q193.52-21.41 192.1-19.38L192.1-19.38 192.1 0 181.6 0 181.6-34.55 192.1-34.55 192.1-21.95Q196.27-26.51 201.55-26.51Z" opacity="1" transform="matrix(1,0,0,1,0,0)" fill="#ff00ff" class="wordmark-text-0" data-fill-palette-color="primary" id="text-0"></path></svg></g></svg></g><g transform="matrix(1,0,0,1,110.30842662532338,110.32104187218606)"><svg viewBox="0 0 174.90314674935323 41.94797866791965" height="41.94797866791965" width="174.90314674935323"><g transform="matrix(1,0,0,1,8,0)"><svg width="158.90314674935323" viewBox="1.6 -36.7 181.43 47.900000000000006" height="41.94797866791965" data-palette-color="#f1b1f2"><path d="M24.25-4.8L25.2-3.05Q20.95 0.6 17.73 0.6 14.5 0.6 14-2.6L14-2.6Q12.5-1.1 10.65-0.25 8.8 0.6 7.4 0.6L7.4 0.6Q5 0.6 3.3-1.5 1.6-3.6 1.6-8L1.6-8Q1.6-14.6 4.4-18.38 7.2-22.15 10.73-22.15 14.25-22.15 16.65-20.55L16.65-20.55Q18.2-28.65 18.2-33.3L18.2-33.3 17.95-35.4Q21.7-36.7 25.3-36.7L25.3-36.7Q25.7-35.85 25.7-34.75L25.7-34.75Q25.7-31.1 23.5-19.93 21.3-8.75 21.3-4.75L21.3-4.75Q21.3-3.55 21.85-3.55L21.85-3.55Q22.15-3.55 23.75-4.5L23.75-4.5 24.25-4.8ZM13.15-19.2L13.15-19.2Q11.4-19.2 10.13-15.75 8.85-12.3 8.85-8.93 8.85-5.55 9.33-4.6 9.8-3.65 10.75-3.65L10.75-3.65Q12.4-3.65 14-5L14-5Q14.15-7 16.25-18.3L16.25-18.3Q14.55-19.2 13.15-19.2ZM26.4-8.65L26.4-8.65Q26.4-14.9 30.17-18.53 33.95-22.15 38.75-22.15L38.75-22.15Q41.7-22.15 43.6-20.7 45.5-19.25 45.5-16.82 45.5-14.4 44.27-12.75 43.05-11.1 41.3-10.2L41.3-10.2Q37.75-8.45 34.8-8L34.8-8 33.6-7.85Q33.95-3.15 37.45-3.15L37.45-3.15Q38.65-3.15 40-3.75 41.35-4.35 42.1-4.95L42.1-4.95 42.85-5.55 44.05-3.95Q43.65-3.4 42.45-2.5 41.25-1.6 40.2-1L40.2-1Q37.3 0.6 33.85 0.6 30.4 0.6 28.4-1.85 26.4-4.3 26.4-8.65ZM33.55-10.3Q36.1-10.75 37.6-12.45 39.1-14.15 39.1-16.85 39.1-19.55 37.5-19.55L37.5-19.55Q35.6-19.55 34.57-16.32 33.55-13.1 33.55-10.3L33.55-10.3ZM51.42-22.15Q53.59-22.15 54.67-21.25 55.75-20.35 55.75-17.55L55.75-17.55Q55.75-16.05 54.84-11.43 53.95-6.8 53.95-5.8L53.95-5.8Q53.95-3.8 54.75-3.8L54.75-3.8Q56.65-3.8 58.92-6.63 61.2-9.45 61.3-11.35L61.3-11.35 57.9-15.15Q58.09-17.3 58.95-19.05 59.8-20.8 60.55-21.5L60.55-21.5 61.25-22.15Q63.4-22.15 64.5-21 65.59-19.85 65.59-18.3L65.59-18.3Q65.59-14.35 63.65-9.95 61.7-5.55 58.45-2.48 55.2 0.6 51.84 0.6L51.84 0.6Q49.75 0.6 48.62-0.7 47.5-2 47.5-4.13 47.5-6.25 47.82-9.85 48.15-13.45 48.15-17L48.15-17Q48.15-17.8 47.57-18.9 47-20 46.4-20.65L46.4-20.65 46.55-21.25Q49.25-22.15 51.42-22.15ZM66.04-8.65L66.04-8.65Q66.04-14.9 69.82-18.53 73.59-22.15 78.39-22.15L78.39-22.15Q81.34-22.15 83.24-20.7 85.14-19.25 85.14-16.82 85.14-14.4 83.92-12.75 82.69-11.1 80.94-10.2L80.94-10.2Q77.39-8.45 74.44-8L74.44-8 73.24-7.85Q73.59-3.15 77.09-3.15L77.09-3.15Q78.29-3.15 79.64-3.75 80.99-4.35 81.74-4.95L81.74-4.95 82.49-5.55 83.69-3.95Q83.29-3.4 82.09-2.5 80.89-1.6 79.84-1L79.84-1Q76.94 0.6 73.49 0.6 70.04 0.6 68.04-1.85 66.04-4.3 66.04-8.65ZM73.19-10.3Q75.74-10.75 77.24-12.45 78.74-14.15 78.74-16.85 78.74-19.55 77.14-19.55L77.14-19.55Q75.24-19.55 74.22-16.32 73.19-13.1 73.19-10.3L73.19-10.3ZM90.07 0.6Q88.34 0.6 87.22-0.55 86.09-1.7 86.09-3.78 86.09-5.85 88.57-17.03 91.04-28.2 91.04-33.15L91.04-33.15 90.74-35.35Q94.64-36.7 98.04-36.7L98.04-36.7Q98.54-36 98.54-34.25L98.54-34.25Q98.54-30.25 96.02-18.78 93.49-7.3 93.49-5.43 93.49-3.55 93.94-3.55L93.94-3.55 97.44-4.8 98.34-3.05Q96.64-1.7 94.22-0.55 91.79 0.6 90.07 0.6ZM106.49 0.6L106.49 0.6Q103.04 0.6 101.09-1.83 99.14-4.25 99.14-8.6L99.14-8.6Q99.14-14.15 102.11-18.15 105.09-22.15 110.34-22.15L110.34-22.15 112.14-22.05Q112.99-22.5 114.04-22.5L114.04-22.5Q117.99-22.5 117.99-15.05L117.99-15.05Q120.04-15.15 122.14-15.6L122.14-15.6 122.94-15.8 123.24-13.85Q121.59-13.15 118.79-12.6L118.79-12.6 117.79-12.4Q116.84-7.15 113.94-3.28 111.04 0.6 106.49 0.6ZM109.19-3.7L109.19-3.7Q111.29-3.7 112.96-6.4 114.64-9.1 115.29-12.1L115.29-12.1Q109.94-12.1 109.94-16.1L109.94-16.1Q109.94-17.7 110.59-19.1L110.59-19.1 110.84-19.6Q110.64-19.7 110.34-19.7 110.04-19.7 109.89-19.6L109.89-19.6Q108.64-18.8 107.54-15.85 106.44-12.9 106.44-9.1L106.44-9.1Q106.44-3.7 109.19-3.7ZM118.49 11.2L118.49 11.2Q118.24 10.6 118.24 8.55 118.24 6.5 120.19-2.48 122.14-11.45 122.14-16.3L122.14-16.3Q122.14-17.25 121.69-18.32 121.24-19.4 120.74-20L120.74-20 120.29-20.55 120.34-21.2Q122.69-21.95 128.64-21.95L128.64-21.95Q129.19-20.9 129.34-19L129.34-19Q133.19-22.15 135.76-22.15 138.34-22.15 139.91-20 141.49-17.85 141.49-13.7L141.49-13.7Q141.49-6.45 138.84-2.93 136.19 0.6 132.14 0.6L132.14 0.6Q130.04 0.6 128.64 0L128.64 0 128.14-0.2 128.49-2.15Q128.94-2.05 129.54-2.05L129.54-2.05Q130.84-2.05 131.81-3.25 132.79-4.45 133.29-6.3L133.29-6.3Q134.29-10 134.29-13.15L134.29-13.15Q134.29-17.65 132.44-17.65L132.44-17.65Q130.99-17.65 129.34-16.5L129.34-16.5Q129.14-13 127.29-4.25 125.44 4.5 125.44 9.85L125.44 9.85Q122.74 10.95 118.49 11.2ZM143.58-8.65L143.58-8.65Q143.58-14.9 147.36-18.53 151.13-22.15 155.93-22.15L155.93-22.15Q158.88-22.15 160.78-20.7 162.68-19.25 162.68-16.82 162.68-14.4 161.46-12.75 160.23-11.1 158.48-10.2L158.48-10.2Q154.93-8.45 151.98-8L151.98-8 150.78-7.85Q151.13-3.15 154.63-3.15L154.63-3.15Q155.83-3.15 157.18-3.75 158.53-4.35 159.28-4.95L159.28-4.95 160.03-5.55 161.23-3.95Q160.83-3.4 159.63-2.5 158.43-1.6 157.38-1L157.38-1Q154.48 0.6 151.03 0.6 147.58 0.6 145.58-1.85 143.58-4.3 143.58-8.65ZM150.73-10.3Q153.28-10.75 154.78-12.45 156.28-14.15 156.28-16.85 156.28-19.55 154.68-19.55L154.68-19.55Q152.78-19.55 151.76-16.32 150.73-13.1 150.73-10.3L150.73-10.3ZM164.73 0.15L164.73 0.15 164.38 0.15Q164.28-0.25 164.28-1.68 164.28-3.1 165.63-9.35 166.98-15.6 166.98-16.5L166.98-16.5Q166.98-18.05 165.58-19.9L165.58-19.9 165.13-20.5 165.18-21.15Q167.88-21.9 173.83-21.9L173.83-21.9Q174.43-20.6 174.43-18.25L174.43-18.25Q174.98-19.15 176.73-20.65 178.48-22.15 180.33-22.15L180.33-22.15Q183.03-22.15 183.03-17.45L183.03-17.45Q182.78-17.15 182.36-16.68 181.93-16.2 180.66-15.35 179.38-14.5 178.18-14.3L178.18-14.3Q178.13-14.3 177.33-15.65 176.53-17 176.13-17L176.13-17Q174.88-16.55 173.93-15.5L173.93-15.5Q171.63-5.15 171.63-2.1L171.63-2.1Q171.63-1 171.68-0.55L171.68-0.55Q169.93 0.15 164.73 0.15Z" opacity="1" transform="matrix(1,0,0,1,0,0)" fill="#f1b1f2" class="slogan-text-1" data-fill-palette-color="secondary" id="text-1"></path></svg></g></svg></g></svg></g></svg></g><g></g></svg></g><defs></defs></svg><rect width="395.52" height="152.2690205401057" fill="none" stroke="none" visibility="hidden"></rect></g></svg></g></svg>